<?xml version="1.0" encoding="UTF-8"?>
<svg id="Layer_1" data-name="Layer 1" xmlns="http://www.w3.org/2000/svg" viewBox="0 0 423.3 266.72">
  <defs>
    <style>
      .cls-1 {
        fill: #2dac5a;
        stroke-width: 0px;
      }
    </style>
  </defs>
  <g id="Group_9" data-name="Group 9">
    <path id="Path_6" data-name="Path 6" class="cls-1" d="M204.51,177.64c-.04,1.23.77,17.76.77,17.76-9.84.31-19.63,1.51-29.26,3.58-7.31,1.49-14.41,3.85-21.15,7.05-7.77,4.53-15.15,9.71-22.05,15.48-1.2.91-2.04,1.2-2.52.87-.47-.32-.83-.78-1.04-1.31-5.78-14.99-4.04-17.6-3.74-23.65s.89-15.15,1.8-27.25c.91-12.1,2.13-27.49,3.96-47.63-9.61,2.49-16.84,4.02-23.07,5.9s-12.76,3.88-21.84,6.58c-1.97,15.48-3.38,27.75-4.54,38.37-1.16,10.62-2.07,19.67-2.82,28.09s-1.38,16.33-1.64,22.47c.74,9.28,3.15,18.36,7.12,26.78.84,1.28.48,2.99-.8,3.83-.04.03-.08.05-.12.07-10.38,5.74-21.71,9.57-33.45,11.31-12.92,1.44-25.91-2.03-36.4-9.72-.88-.74-1.67-1.48-2.4-2.16s-1.35-1.32-1.86-1.87C-1.84,239.98-.15,234.96.47,230.44s1.92-11.95,3.63-20.82c1.71-8.87,3.84-19.21,6.28-30.36s5.19-23.12,8.24-35.6c3.05-12.48,6.39-25.45,10.1-38.58s7.72-26.41,12.11-39.04c3.88-11.7,8.63-23.09,14.22-34.08.91-1.7,1.97-3.6,3.23-5.53,5.03-8.01,12.48-14.21,21.26-17.71,8.62-4.25,17.86-7.1,27.37-8.46,1.97-.3,2.7.49,2.15,2.5-2.25,8.27-4.15,16.84-5.9,25.43s-3.36,17.3-5.06,27.16-3.48,20.91-5.5,34.52c8.67-2.16,14.83-3.52,20.6-4.71,5.77-1.19,12.79-1.83,22.08-3.18,1.36-12.53,2.55-22.68,3.68-31.64,1.13-8.96,2.21-16.82,3.38-24.43,1.17-7.61,2.43-15.08,3.93-21.88.28-.7,1.04-1.08,1.77-.88,12.34,1.97,21.25,3,30,3.8s17.29,1.4,28.16,1.48c.78,0,1.39.41,1.37.92-.3,8.27-.56,20.25-.81,32.82-.25,12.57-.47,25.89-.67,39.01-.21,13.12-.4,26.15-.59,38.64-.19,12.49-.36,24.52-.53,34.92s-.32,19.26-.44,22.88"/>
  </g>
  <g id="Group_10" data-name="Group 10">
    <path id="Path_7" data-name="Path 7" class="cls-1" d="M408.67,258.59c-8.16,7.5-20.29,9.13-31.42,7.61-12.37-1.11-24.34-4.99-35.01-11.35-1.17-.61-1.69-1.28-1.58-2.03.1-.71.32-1.41.65-2.05,4.52-7.32,6.72-15.85,6.28-24.45-.11-4.56-.55-11.18-1.22-19.29-.67-8.12-1.6-17.8-2.86-29.58-1.26-11.78-2.85-25.74-4.98-42.58-9.07-2.7-15.59-4.68-21.79-6.57-6.21-1.89-13.54-3.42-23.14-5.9,1.25,13.86,2.17,24.77,2.92,34.12.75,9.36,1.33,17.22,1.83,24.38.5,7.16.91,13.7,1.1,18.2.04,7.54-.97,15.05-3,22.31-.46,1.29-2.03,1.48-3.44.4-13.55-10.27-20.86-15.77-30.85-19.27-12.53-4.2-25.6-6.55-38.8-7-1.5-.08-2.41-.33-2.71-.79-.29-.39-.45-.87-.45-1.36.37-14.09.09-13.54-.05-20.3-.14-6.76-.3-17.9-.49-30.74-.19-12.84-.37-27.52-.59-42.97s-.45-31.81-.71-47.54-.55-31.07-.87-41.32c-.04-1.32.89-1.89,2.8-1.92,10.33-.15,18.46-.73,26.74-1.51s16.72-1.77,28.35-3.6c2.15-.34,3.42.23,3.76,1.88,1.44,6.89,2.64,14.26,3.76,21.76s2.14,15.18,3.22,23.94,2.22,18.64,3.51,30.85c9.28,1.36,16.43,2,22.17,3.17s11.89,2.52,20.55,4.68c-2.04-13.94-3.85-25.26-5.56-35.32-1.71-10.06-3.35-18.94-5.12-27.65s-3.69-17.37-5.98-25.58c-.19-.44,0-.94.44-1.13.17-.08.36-.09.54-.05,10,1.2,19.73,4.07,28.79,8.47,9.33,3.61,17.17,10.26,22.25,18.88.49.82,1.21,2.05,1.59,2.72,5.48,10.48,10.13,21.38,13.91,32.6,4.27,12.05,8.17,24.72,11.78,37.34,3.61,12.62,6.92,25.22,9.99,37.6,3.08,12.38,5.9,24.55,8.5,36.26,2.6,11.7,4.92,22.97,6.89,32.92,1.07,5.43,1.92,12.03,2.48,16.9.5,4.46.94,9.98-.79,14.12,0,0-5.11,13.15-13.39,20.76Z"/>
  </g>
</svg>